<svg version="1.2" baseProfile="tiny-ps" xmlns="http://www.w3.org/2000/svg" viewBox="0 0 1500 1500" width="200" height="200">
	<title>4894357-ai</title>
	<defs>
		<radialGradient id="grd1" gradientUnits="userSpaceOnUse"  cx="811.135" cy="570.119" r="606.259">
			<stop offset="0" stop-color="#ffab2d"  />
			<stop offset="0.7" stop-color="#fc3069"  />
		</radialGradient>
		<radialGradient id="grd2" gradientUnits="userSpaceOnUse"  cx="573.547" cy="473.705" r="298.288">
			<stop offset="0.01" stop-color="#ab2556"  />
			<stop offset="1" stop-color="#47287a"  />
		</radialGradient>
		<linearGradient id="grd3" gradientUnits="userSpaceOnUse"  x1="470.058" y1="690.785" x2="470.058" y2="576.054">
			<stop offset="0.167" stop-color="#1e78bf"  />
			<stop offset="1" stop-color="#56c9af"  />
		</linearGradient>
		<linearGradient id="grd4" gradientUnits="userSpaceOnUse"  x1="414.856" y1="579.486" x2="414.856" y2="511.052">
			<stop offset="0.167" stop-color="#1e78bf"  />
			<stop offset="1" stop-color="#56c9af"  />
		</linearGradient>
	</defs>
	<style>
		tspan { white-space:pre }
		.shp0 { fill: #ffffff } 
		.shp1 { fill: url(#grd1) } 
		.shp2 { opacity: 0.2;mix-blend-mode: overlay;fill: #ffffff } 
		.shp3 { fill: url(#grd2) } 
		.shp4 { fill: url(#grd3) } 
		.shp5 { fill: url(#grd4) } 
		.txt6 { font-size: 22px;fill: #ff0000;font-weight: 500;font-family: "Montserrat-Medium", "Montserrat" } 
		.txt7 { font-size: 44px;fill: #791618;font-weight: 900;font-family: "Montserrat-Black", "Montserrat" } 
	</style>
	<g id="BACKGROUND">
		<g id="&lt;Group&gt;">
			<path id="&lt;Path&gt;" class="shp0" d="M0 1500L0 0L1500 0L1500 1500L0 1500Z" />
		</g>
	</g>
	<g id="OBJECTS">
		<g id="&lt;Group&gt;">
			<g id="&lt;Group&gt;">
				<path id="&lt;Path&gt;" class="shp1" d="M1041.35 773.3C1024.2 783.74 1006.75 793.01 1021.04 810.25C1026.51 816.85 1018.84 823.95 998.03 831.54C1015.77 844.01 1021.64 854.44 1015.63 862.84C1006.61 875.45 997.13 874.14 1004.8 900.22C1012.47 926.3 1002.99 954.99 943.89 941.95C886.33 929.25 859.17 940.48 871.13 988.46C858.88 1001.31 812.85 1007.73 733.05 1007.73C653.25 1007.73 606.23 1001.31 591.99 988.46C595.58 969.03 597.36 949.79 597.62 930.7C544.83 932.76 496.36 927.78 452.2 915.77C502.88 915.77 551.28 905.82 595.64 887.74C599.9 886.02 604.11 884.19 608.29 882.32C608.64 882.15 608.98 882 609.33 881.85C613.54 879.94 617.71 877.95 621.84 875.9C621.97 875.83 622.11 875.76 622.24 875.69C626.27 873.69 630.25 871.6 634.2 869.45C634.46 869.3 634.74 869.16 635.01 869.02C639.03 866.81 643.02 864.53 646.95 862.19C647.21 862.04 647.45 861.89 647.7 861.74C651.52 859.45 655.29 857.11 659.02 854.69C659.21 854.58 659.39 854.47 659.58 854.34C663.41 851.86 667.19 849.31 670.92 846.7C671.26 846.46 671.59 846.22 671.93 845.98C675.56 843.42 679.15 840.8 682.69 838.13C682.78 838.06 682.87 838 682.97 837.92C686.58 835.18 690.14 832.36 693.66 829.5C694.06 829.18 694.45 828.85 694.84 828.53C701.79 822.83 708.55 816.88 715.08 810.69C715.52 810.29 715.95 809.88 716.38 809.46C722.84 803.32 729.08 796.95 735.12 790.37C735.57 789.88 736.02 789.39 736.46 788.89C742.42 782.33 748.16 775.56 753.67 768.6C754.12 768.03 754.57 767.46 755.02 766.89C760.46 759.94 765.67 752.8 770.65 745.47C771.09 744.83 771.53 744.19 771.96 743.55C774.42 739.89 776.83 736.19 779.18 732.43C779.3 732.23 779.42 732.03 779.54 731.84C781.75 728.29 783.9 724.68 786 721.05C786.4 720.36 786.8 719.67 787.2 718.98C789.37 715.18 791.49 711.34 793.54 707.46C793.76 707.03 793.98 706.6 794.2 706.17C796.06 702.63 797.86 699.04 799.61 695.43C799.96 694.7 800.32 693.97 800.68 693.24C802.56 689.31 804.38 685.35 806.13 681.35C806.4 680.74 806.65 680.12 806.92 679.5C808.47 675.92 809.97 672.31 811.41 668.67C811.7 667.93 812.01 667.19 812.3 666.45C813.88 662.4 815.4 658.31 816.85 654.2C817.13 653.43 817.39 652.66 817.65 651.89C818.92 648.23 820.14 644.54 821.3 640.84C821.53 640.12 821.77 639.4 821.99 638.67C823.28 634.5 824.49 630.31 825.64 626.08C825.88 625.19 826.11 624.29 826.35 623.39C827.35 619.61 828.3 615.81 829.2 611.98C829.35 611.32 829.52 610.67 829.67 610.02C830.64 605.73 831.55 601.41 832.39 597.08C832.58 596.09 832.76 595.09 832.95 594.09C833.69 590.14 834.37 586.17 834.99 582.17C835.08 581.63 835.17 581.09 835.26 580.54C835.92 576.15 836.5 571.71 837.02 567.27C837.15 566.21 837.26 565.15 837.38 564.09C837.84 559.85 838.25 555.61 838.58 551.34C838.61 551.02 838.64 550.7 838.67 550.38C839.01 545.86 839.25 541.31 839.44 536.75C839.49 535.64 839.53 534.54 839.57 533.43C839.72 528.82 839.83 524.2 839.83 519.56C839.83 470.87 831.22 424.25 815.5 381.16C923.13 402.66 1003.25 485.6 1003.25 598.59C1003.25 612.82 1001.97 626.77 999.54 640.32C998.62 678.25 1037.12 710.35 1061.5 730.7C1088.56 753.3 1058.48 762.87 1041.35 773.3Z" />
				<path id="&lt;Path&gt;" class="shp2" d="M593.62 928.7C540.83 930.76 492.36 925.78 448.2 913.77C498.88 913.77 547.28 903.82 591.64 885.74C595.9 884.02 600.11 882.19 604.29 880.32C604.64 880.15 604.98 880 605.33 879.85C609.54 877.94 613.71 875.95 617.84 873.9C617.97 873.83 618.11 873.76 618.24 873.69C622.27 871.69 626.25 869.6 630.2 867.45C630.46 867.3 630.74 867.16 631.01 867.02C635.03 864.81 639.02 862.53 642.95 860.19C643.21 860.04 643.45 859.89 643.7 859.74C647.52 857.45 651.29 855.11 655.02 852.69C655.21 852.58 655.39 852.47 655.58 852.34C659.41 849.86 663.19 847.31 666.92 844.7C667.26 844.46 667.59 844.22 667.93 843.98C671.56 841.42 675.15 838.8 678.69 836.13C678.78 836.06 678.87 836 678.97 835.92C682.58 833.18 686.14 830.36 689.66 827.5C690.06 827.18 690.45 826.85 690.84 826.53C697.79 820.83 704.55 814.88 711.08 808.69C711.52 808.29 711.95 807.88 712.38 807.46C718.84 801.32 725.08 794.95 731.12 788.37C731.57 787.88 732.02 787.39 732.46 786.89C738.42 780.33 744.16 773.56 749.67 766.6C750.12 766.03 750.57 765.46 751.02 764.89C756.46 757.94 761.67 750.8 766.65 743.47C767.09 742.83 767.53 742.19 767.96 741.55C770.42 737.89 772.83 734.19 775.18 730.43C775.3 730.23 775.42 730.03 775.54 729.84C777.75 726.29 779.9 722.68 782 719.05C782.4 718.36 782.8 717.67 783.2 716.98C785.37 713.18 787.49 709.34 789.54 705.46C789.76 705.03 789.98 704.6 790.2 704.17C792.06 700.63 793.86 697.04 795.61 693.43C795.96 692.7 796.32 691.97 796.68 691.24C798.56 687.31 800.38 683.35 802.13 679.35C802.4 678.74 802.65 678.12 802.92 677.5C804.47 673.92 805.97 670.31 807.41 666.67C807.7 665.93 808.01 665.19 808.3 664.45C809.88 660.4 811.4 656.31 812.85 652.2C813.13 651.43 813.39 650.66 813.65 649.89C814.92 646.23 816.14 642.54 817.3 638.84C817.53 638.12 817.77 637.4 817.99 636.67C819.28 632.5 820.49 628.31 821.64 624.08C821.88 623.19 822.11 622.29 822.35 621.39C823.35 617.61 824.3 613.81 825.2 609.98C825.35 609.32 825.52 608.67 825.67 608.02C826.64 603.73 827.55 599.41 828.39 595.08C828.58 594.09 828.76 593.09 828.95 592.09C829.69 588.14 830.37 584.17 830.99 580.17C831.08 579.63 831.17 579.09 831.26 578.54C831.92 574.15 832.5 569.71 833.02 565.27C833.15 564.21 833.26 563.15 833.38 562.09C833.84 557.85 834.25 553.61 834.58 549.34C834.61 549.02 834.64 548.7 834.67 548.38C835.01 543.86 835.25 539.31 835.44 534.75C835.49 533.64 835.53 532.54 835.57 531.43C835.72 526.82 835.83 522.2 835.83 517.56C835.83 468.87 827.22 422.25 811.5 379.16C859.33 388.71 901.7 410.43 934.05 441.49C997.71 740.95 884.23 903.35 593.62 928.7Z" />
			</g>
			<g id="&lt;Group&gt;">
				<path id="&lt;Compound Path&gt;" fill-rule="evenodd" class="shp3" d="M702.49 755.14C681.98 783.85 654.29 804.35 623.53 816.42C615.03 819.89 606.15 822.71 596.9 824.78C506.39 845.1 416.75 787 396.43 696.5C401.03 715.82 427.74 725.35 445.12 727.77C471.53 731.44 523.32 720.53 549.51 727.89C568.58 733.24 583.33 751.33 595.39 766.61C598.62 770.71 601.86 774.86 605.26 778.86C569.41 794.45 527.93 792.42 480.82 772.75C527.22 808.51 578.75 800.92 603.03 794.3C641.81 782.13 646.35 733.23 646.13 709.15C642.61 645.15 619.39 541.22 513.9 478.86C513.67 478.9 513.45 478.92 513.22 478.95C513.42 478.9 513.62 478.86 513.8 478.81C482.57 460.37 444.16 445.54 396.87 436.5C555.56 466.2 653.51 472.47 690.74 455.3C741.29 431.99 756.03 357.71 722.34 264.67C818.98 449.42 812.36 612.91 702.49 755.14ZM689.19 348.33C696.7 381.77 675.67 414.97 642.22 422.47C608.78 429.99 575.58 408.96 568.07 375.51C560.56 342.06 581.59 308.86 615.04 301.36C648.48 293.85 681.68 314.87 689.19 348.33Z" />
				<g id="&lt;Group&gt;" style="opacity: 0.302;mix-blend-mode: overlay">
					<path id="&lt;Path&gt;" class="shp0" d="M722.34 264.67C736.87 292.46 749.83 327.5 761.21 369.81C766.55 461.91 757.6 635.44 602.96 565.17C583.15 533.32 554.7 502.98 513.9 478.86C513.67 478.9 513.45 478.92 513.22 478.95C513.42 478.9 513.62 478.86 513.8 478.81C482.57 460.37 444.16 445.54 396.87 436.5C555.56 466.2 653.51 472.47 690.74 455.3C741.29 431.99 756.03 357.71 722.34 264.67Z" />
					<path id="&lt;Path&gt;" class="shp0" d="M568.07 375.51C560.56 342.06 581.59 308.86 615.04 301.36C648.48 293.85 681.68 314.87 689.19 348.33C696.7 381.77 675.67 414.97 642.22 422.47C608.78 429.99 575.58 408.96 568.07 375.51Z" />
				</g>
			</g>
			<g id="&lt;Group&gt;">
				<path id="&lt;Path&gt;" class="shp4" d="M590.79 618.94L590.79 647.9C590.79 653.36 586.36 657.8 580.89 657.8L557.8 657.8L557.8 680.89C557.8 686.35 553.38 690.79 547.91 690.79L518.95 690.79C513.48 690.79 509.05 686.35 509.05 680.89L509.05 657.8L485.95 657.8C480.49 657.8 476.06 653.36 476.06 647.9L476.06 618.94C476.06 613.48 480.49 609.05 485.95 609.05L509.05 609.05L509.05 585.95C509.05 580.49 513.48 576.05 518.95 576.05L547.91 576.05C553.38 576.05 557.8 580.49 557.8 585.95L557.8 609.05L580.89 609.05C586.36 609.05 590.79 613.48 590.79 618.94Z" />
				<path id="&lt;Path&gt;" class="shp5" d="M489.29 536.63L489.29 553.91C489.29 557.17 486.65 559.82 483.38 559.82L469.61 559.82L469.61 573.58C469.61 576.85 466.97 579.49 463.71 579.49L446.44 579.49C443.17 579.49 440.53 576.85 440.53 573.58L440.53 559.82L426.76 559.82C423.49 559.82 420.86 557.17 420.86 553.91L420.86 536.63C420.86 533.38 423.49 530.73 426.76 530.73L440.53 530.73L440.53 516.95C440.53 513.7 443.17 511.05 446.44 511.05L463.71 511.05C466.97 511.05 469.61 513.7 469.61 516.95L469.61 530.73L483.38 530.73C486.65 530.73 489.29 533.38 489.29 536.63Z" />
			</g>
		</g>
		<g id="&lt;Group&gt;">
			<g id="&lt;Group&gt;">
				<text id="wealthy" style="transform: matrix(3,0,0,3,433.399,1242.774)" >
					<tspan x="0" y="0" class="txt6" dx="0 13 13 13 13 13 13 13" >WEALTHY
</tspan>
				</text>
			</g>
			<g id="&lt;Group&gt;">
				<text id="healthy" style="transform: matrix(3,0,0,3,350.323,1157.052)" >
					<tspan x="0" y="0" class="txt7" dx="0 7 7 7 7 7 7 7" >HEALTHY
</tspan>
				</text>
			</g>
		</g>
	</g>
</svg>